<?xml version="1.0" standalone="no"?>
<!DOCTYPE svg PUBLIC "-//W3C//DTD SVG 20010904//EN"
 "http://www.w3.org/TR/2001/REC-SVG-20010904/DTD/svg10.dtd">
<svg version="1.0" xmlns="http://www.w3.org/2000/svg"
 width="32.000000pt" height="32.000000pt" viewBox="0 0 32.000000 32.000000"
 preserveAspectRatio="xMidYMid meet">

<g transform="translate(0.000000,32.000000) scale(0.100000,-0.100000)"
fill="#000000" stroke="none">
<path d="M125 301 c-10 -12 -33 -21 -59 -23 -37 -3 -41 -6 -44 -33 -2 -16 -8
-34 -13 -39 -14 -15 -11 -180 3 -194 17 -17 279 -17 296 0 14 14 17 179 3 194
-5 5 -11 23 -13 39 -3 27 -7 30 -44 33 -26 2 -49 11 -59 23 -10 10 -26 19 -35
19 -9 0 -25 -9 -35 -19z m55 -11 c11 -7 6 -10 -20 -10 -26 0 -31 3 -20 10 8 5
17 10 20 10 3 0 12 -5 20 -10z m100 -69 c0 -35 -6 -44 -54 -85 -29 -25 -59
-46 -66 -46 -7 0 -37 21 -66 46 -48 41 -54 50 -54 85 l0 39 120 0 120 0 0 -39z
m-170 -127 c0 -2 -20 -17 -45 -34 l-45 -31 0 71 0 71 45 -37 c25 -20 45 -38
45 -40z m190 6 l0 -71 -47 32 -46 32 44 38 c24 21 45 39 47 39 1 0 2 -32 2
-70z m-65 -50 l40 -25 -57 -3 c-32 -2 -84 -2 -115 0 l-57 3 39 26 c48 32 98
31 150 -1z"/>
<path d="M85 220 c-4 -6 15 -10 50 -10 35 0 54 4 50 10 -3 6 -26 10 -50 10
-24 0 -47 -4 -50 -10z"/>
<path d="M85 180 c-4 -6 23 -10 75 -10 52 0 79 4 75 10 -8 13 -142 13 -150 0z"/>
</g>
</svg>
